<svg width="411" height="139" viewBox="0 0 411 139" fill="none" xmlns="http://www.w3.org/2000/svg">
<path d="M115.634 93.975C114.56 104.715 114.023 120.467 114.023 127.627C114.023 128.701 113.307 129.775 110.98 130.67C100.956 135.324 83.951 138.904 68.557 138.904C23.986 138.904 -1.53743e-05 110.98 -1.53743e-05 69.452C-1.53743e-05 28.998 24.165 3.01003e-05 64.798 3.01003e-05C72.853 3.01003e-05 87.889 1.79003 94.512 4.29603C96.481 5.01203 99.524 5.37004 102.209 5.37004C103.104 5.37004 103.999 5.37004 104.715 5.19104C106.147 5.01203 107.042 5.01203 107.937 5.01203C109.19 5.01203 109.548 5.37004 109.727 6.98104C110.801 16.11 112.949 31.146 114.202 39.917C114.202 40.275 114.202 40.454 114.202 40.633C114.202 41.349 114.023 41.707 113.128 41.886C112.949 41.886 112.591 41.886 112.412 41.886C111.338 41.886 110.801 41.17 110.443 40.454C100.598 15.931 86.099 7.69704 65.872 7.69704C41.886 7.69704 25.776 25.597 25.776 61.755C25.776 107.221 45.824 131.028 72.853 131.028C91.469 131.028 103.462 122.973 112.233 93.259C112.591 92.364 112.77 92.006 113.844 92.006C114.023 92.006 114.202 92.006 114.381 92.006C115.097 92.006 115.634 92.364 115.634 93.438C115.634 93.617 115.634 93.796 115.634 93.975ZM228.754 126.732C228.754 127.627 228.396 128.343 227.501 128.701C218.372 132.46 206.2 136.04 195.46 138.188C195.281 138.188 195.281 138.188 195.102 138.188C194.207 138.188 193.849 137.651 193.67 136.04C193.67 133.355 193.133 125.3 193.133 125.3C184.899 133.892 173.443 138.367 163.061 138.367C143.013 138.367 132.81 127.269 132.81 103.999V57.638C132.81 52.447 130.841 49.404 122.607 48.688C121.712 48.688 120.996 48.151 120.996 46.898C120.996 45.645 121.533 45.287 122.786 45.287H151.963C154.111 45.287 154.827 45.466 154.827 48.509V102.388C154.827 120.646 163.24 125.658 172.011 125.658C180.424 125.658 187.942 121.72 193.133 115.455V57.638C193.133 52.447 190.806 49.404 182.572 48.688C181.498 48.509 180.961 48.151 180.961 46.898C180.961 45.645 181.14 45.287 182.751 45.287H213.36C215.329 45.287 215.866 45.645 215.866 48.509V121.004C215.866 124.405 216.582 125.837 219.625 125.837C221.236 125.837 223.563 125.479 226.785 124.763C226.964 124.763 226.964 124.763 227.143 124.763C228.038 124.763 228.754 125.658 228.754 126.732ZM312.558 59.249C312.558 66.767 309.694 70.168 303.966 70.168C288.035 70.168 301.639 53.879 284.992 53.879C276.042 53.879 265.66 61.934 265.66 71.6V123.689C265.66 128.88 267.808 131.923 275.863 132.639C276.758 132.639 277.474 133.176 277.474 134.429C277.474 135.682 276.937 136.04 275.684 136.04H233.261C231.65 136.04 231.471 135.682 231.471 134.429C231.471 133.176 232.008 132.818 233.082 132.639C241.316 131.923 243.285 128.88 243.285 123.689V60.144C243.285 55.132 242.211 54.595 233.798 54.595C232.366 54.595 231.65 53.521 231.65 52.626C231.65 51.731 232.187 50.657 233.261 50.478C243.464 48.688 254.92 45.645 263.87 43.139C264.049 43.139 264.228 43.139 264.407 43.139C265.481 43.139 265.66 43.855 265.66 45.287V56.564C273.536 47.972 283.56 42.96 294.3 42.96C305.04 42.96 312.558 50.657 312.558 59.249ZM410.833 129.417C410.833 130.133 410.296 131.028 409.401 131.744C405.105 135.682 398.124 138.367 391.322 138.367C380.403 138.367 375.391 133.892 374.317 124.584C367.694 133.534 354.269 138.367 340.307 138.367C323.481 138.367 313.636 129.059 313.636 114.56C313.636 95.944 324.555 86.994 348.72 83.056C355.343 81.982 365.367 79.834 372.348 77.686C372.348 57.996 363.398 51.194 351.405 51.194C339.054 51.194 334.579 55.132 334.579 60.86C334.579 64.261 337.264 65.335 337.264 69.989C337.264 75.896 333.684 78.939 327.061 78.939C320.617 78.939 316.858 74.285 316.858 67.841C316.858 54.058 331.536 42.96 356.596 42.96C383.804 42.96 395.26 56.206 395.26 78.044V117.424C395.26 126.195 396.513 129.954 401.704 129.954C404.031 129.954 406 129.238 407.969 127.985C408.685 127.448 409.043 127.269 409.401 127.269C409.759 127.269 410.117 127.627 410.475 128.343C410.833 128.701 410.833 129.059 410.833 129.417ZM372.885 115.097V85.562C367.157 87.71 359.281 89.321 352.3 90.753C340.128 93.438 334.758 99.703 334.758 110.801C334.758 119.93 341.381 125.121 352.3 125.121C360.534 125.121 369.842 120.646 372.885 115.097Z" fill="black"/>
</svg>
